<svg xmlns="http://www.w3.org/2000/svg" width="720" height="420" font-family="system-ui,Arial,sans-serif" font-size="13">
<rect width="720" height="420" fill="#0d1117"/>
<text x="360.0" y="22" fill="#e6edf3" font-size="16" font-weight="700" text-anchor="middle">Prediction Horizon vs. Date Made (AGI timeline)</text>
<line x1="70" y1="40" x2="70" y2="360" stroke="#30363d"/><line x1="70" y1="360" x2="690" y2="360" stroke="#30363d"/>
<line x1="70" y1="360.0" x2="690" y2="360.0" stroke="#161b22"/>
<text x="62" y="364.0" fill="#8b949e" text-anchor="end">0</text>
<line x1="70" y1="237.5" x2="690" y2="237.5" stroke="#161b22"/>
<text x="62" y="241.5" fill="#8b949e" text-anchor="end">1</text>
<line x1="70" y1="115.0" x2="690" y2="115.0" stroke="#161b22"/>
<text x="62" y="119.0" fill="#8b949e" text-anchor="end">2</text>
<text x="20" y="200.0" fill="#8b949e" text-anchor="middle" transform="rotate(-90 20 200.0)">Horizon (years)</text>
<line x1="70.0" y1="94.7" x2="690.0" y2="125.2" stroke="#f78166" stroke-width="2" stroke-dasharray="6 4"/>
<circle cx="70.0" cy="92.4" r="6" fill="#58a6ff"/>
<text x="70.0" y="80.4" fill="#e6edf3" text-anchor="middle" font-size="11">P001</text>
<text x="70.0" y="378.0" fill="#8b949e" text-anchor="middle" font-size="10">2024-10-24</text>
<circle cx="249.3" cy="106.8" r="6" fill="#58a6ff"/>
<text x="249.3" y="94.8" fill="#e6edf3" text-anchor="middle" font-size="11">P002</text>
<text x="249.3" y="378.0" fill="#8b949e" text-anchor="middle" font-size="10">2025-03-06</text>
<circle cx="690.0" cy="124.2" r="6" fill="#58a6ff"/>
<text x="690.0" y="112.2" fill="#e6edf3" text-anchor="middle" font-size="11">P003</text>
<text x="690.0" y="378.0" fill="#8b949e" text-anchor="middle" font-size="10">2026-01-27</text>
<text x="690" y="408" fill="#8b949e" text-anchor="end" font-size="11">slope = -0.1974 yr/yr  (R^2 = 0.9659)</text>
</svg>